<?xml version="1.0" encoding="utf-8"?>
<!-- Generator: Adobe Illustrator 22.0.0, SVG Export Plug-In . SVG Version: 6.00 Build 0)  -->
<svg version="1.1" id="图层_1" xmlns="http://www.w3.org/2000/svg" xmlns:xlink="http://www.w3.org/1999/xlink" x="0px" y="0px"
	 viewBox="0 0 1500 723" style="enable-background:new 0 0 1500 723;" xml:space="preserve">
<style type="text/css">
	.st0{opacity:0.5;fill:url(#SVGID_1_);enable-background:new    ;}
</style>
<linearGradient id="SVGID_1_" gradientUnits="userSpaceOnUse" x1="750" y1="723" x2="750" y2="-1.818989e-12">
	<stop  offset="0" style="stop-color:#FFFFFF;stop-opacity:0"/>
	<stop  offset="1" style="stop-color:#61D951"/>
</linearGradient>
<path class="st0" d="M1441.1,10.8C1406.8,5.3,1360.1,0,1307.6,0c-53.2,0-112.3,6.9-170.7,12.6c-59.3,5.7-122,18.6-179.3,18.6
	c-12.8,0-25.4-0.1-37.5-0.3c-76.7-1.2-153.2-8.1-228.9-20.1C656.8,5.3,610,0,557.6,0c-53.2,0-112.3,6.9-170.7,12.6
	c-59.3,5.7-122,18.6-179.3,18.6c-12.8,0-25.4-0.1-37.5-0.3C113.2,30,56.4,26,0,19l0,704h750h750V19
	C1480.3,16.6,1460.7,13.9,1441.1,10.8z"/>
</svg>
