<?xml version="1.0" encoding="utf-8"?>
<!-- Generator: Adobe Illustrator 22.0.0, SVG Export Plug-In . SVG Version: 6.00 Build 0)  -->
<svg version="1.1" id="图层_1" xmlns="http://www.w3.org/2000/svg" xmlns:xlink="http://www.w3.org/1999/xlink" x="0px" y="0px"
	 viewBox="0 0 1500 723" style="enable-background:new 0 0 1500 723;" xml:space="preserve">
<style type="text/css">
	.st0{opacity:0.5;fill:url(#SVGID_1_);enable-background:new    ;}
</style>
<linearGradient id="SVGID_1_" gradientUnits="userSpaceOnUse" x1="750" y1="723" x2="750" y2="3.677469e-07" gradientTransform="matrix(-1 0 0 1 1500 0)">
	<stop  offset="0" style="stop-color:#FFFFFF;stop-opacity:0"/>
	<stop  offset="1" style="stop-color:#61D951"/>
</linearGradient>
<path class="st0" d="M58.9,10.8C93.2,5.3,139.9,0,192.4,0c53.2,0,112.3,6.9,170.7,12.6c59.3,5.7,122,18.6,179.3,18.6
	c12.8,0,25.4-0.1,37.5-0.3c76.7-1.2,153.2-8.1,228.9-20.1C843.2,5.3,890,0,942.4,0c53.2,0,112.3,6.9,170.7,12.6
	c59.3,5.7,122,18.6,179.3,18.6c12.8,0,25.4-0.1,37.5-0.3C1386.8,30,1443.6,26,1500,19v704H750H0L0,19C19.7,16.6,39.3,13.9,58.9,10.8
	z"/>
</svg>
